<svg xmlns="http://www.w3.org/2000/svg" viewBox="0 0 640 420" width="640" height="420"><defs><marker id="forceArrowFull" markerWidth="10" markerHeight="10" refX="9" refY="5" orient="auto" markerUnits="strokeWidth"><path d="M0,0 L10,5 L0,10 Z" fill="#991b1b"/></marker><marker id="dimArrowFull" markerWidth="8" markerHeight="8" refX="4" refY="4" orient="auto-start-reverse" markerUnits="strokeWidth"><path d="M8,4 L0,0 L0,8 Z" fill="#1f2937"/></marker></defs><rect x="0" y="0" width="640" height="420" fill="#ffffff"/><polygon points="64,336 570,183 576,201 70,354" fill="#e5e7eb" stroke="#1f2937" stroke-width="2"/><circle cx="180" cy="277" r="28" fill="#374151" stroke="#111827" stroke-width="2"/><circle cx="180" cy="277" r="10" fill="#cbd5e1" stroke="#111827" stroke-width="2"/><circle cx="420" cy="204" r="28" fill="#374151" stroke="#111827" stroke-width="2"/><circle cx="420" cy="204" r="10" fill="#cbd5e1" stroke="#111827" stroke-width="2"/><polygon points="157,248 403,173 433,207 175,285" fill="#64748b" stroke="#1f2937" stroke-width="3"/><polygon points="215,172 345,133 390,184 198,242" fill="#bfdbfe" stroke="#1f2937" stroke-width="3"/><line x1="245" y1="163" x2="226" y2="223" stroke="#64748b" stroke-width="2"/><line x1="342" y1="136" x2="357" y2="194" stroke="#64748b" stroke-width="2"/><rect x="276" y="143" width="54" height="34" rx="5" fill="#94a3b8" stroke="#1f2937" stroke-width="2" transform="rotate(-16.9 303 160)"/><line x1="188" y1="304" x2="428" y2="231" stroke="#111827" stroke-width="1.5"/><circle cx="428" cy="231" r="4" fill="#ffffff" stroke="#111827" stroke-width="2"/><text x="442" y="228" fill="#111827" font-family="Arial, sans-serif" font-size="18">Q</text><path d="M174,323 L202,323 L188,304 Z" fill="#ffffff" stroke="#111827" stroke-width="2"/><text x="159" y="319" fill="#111827" font-family="Arial, sans-serif" font-size="18" font-weight="bold">P</text><circle cx="308" cy="268" r="4" fill="#111827"/><text x="317" y="284" fill="#111827" font-family="Arial, sans-serif" font-size="17">M</text><line x1="308" y1="268" x2="279" y2="172" stroke="#475569" stroke-width="1.5" stroke-dasharray="7 5" marker-start="url(#dimArrowFull)" marker-end="url(#dimArrowFull)"/><path d="M308,268 L294.6,272.1 L290.5,258.7 L303.9,254.6" fill="none" stroke="#111827" stroke-width="1.5"/><circle cx="279" cy="172" r="6" fill="#111827"/><text x="290" y="168" fill="#111827" font-family="Arial, sans-serif" font-size="18" font-weight="bold">G</text><text x="315" y="216" fill="#111827" font-family="Arial, sans-serif" font-size="17">0.90 m</text><line x1="279" y1="132" x2="279" y2="283" stroke="#991b1b" stroke-width="1.3" stroke-dasharray="6 5"/><line x1="279" y1="187" x2="279" y2="257" stroke="#991b1b" stroke-width="3" marker-end="url(#forceArrowFull)"/><text x="289" y="232" fill="#991b1b" font-family="Arial, sans-serif" font-size="18" font-weight="bold">W</text><line x1="188" y1="304" x2="203" y2="353" stroke="#475569" stroke-width="1.3"/><line x1="428" y1="231" x2="443" y2="280" stroke="#475569" stroke-width="1.3"/><line x1="203" y1="353" x2="443" y2="280" stroke="#1f2937" stroke-width="1.5" marker-start="url(#dimArrowFull)" marker-end="url(#dimArrowFull)"/><text x="303" y="332" fill="#111827" font-family="Arial, sans-serif" font-size="17" font-weight="bold" transform="rotate(-16.9 303 332)">1.20 m</text><line x1="70" y1="340" x2="164" y2="340" stroke="#475569" stroke-width="1.3" stroke-dasharray="6 5"/><path d="M114,340 A44,44 0 0 0 112,327.2" fill="none" stroke="#111827" stroke-width="1.8"/><text x="120" y="326" fill="#111827" font-family="Arial, sans-serif" font-size="19" font-style="italic">θ</text></svg>