<svg xmlns="http://www.w3.org/2000/svg" viewBox="0 0 640 420" width="640" height="420"><defs><marker id="forceArrowOverlay" markerWidth="10" markerHeight="10" refX="9" refY="5" orient="auto" markerUnits="strokeWidth"><path d="M0,0 L10,5 L0,10 Z" fill="#991b1b"/></marker><marker id="dimArrowOverlay" markerWidth="8" markerHeight="8" refX="4" refY="4" orient="auto-start-reverse" markerUnits="strokeWidth"><path d="M8,4 L0,0 L0,8 Z" fill="#1f2937"/></marker></defs><line x1="188" y1="304" x2="428" y2="231" stroke="#111827" stroke-width="1.5"/><circle cx="428" cy="231" r="4" fill="#ffffff" stroke="#111827" stroke-width="2"/><text x="442" y="228" fill="#111827" font-family="Arial, sans-serif" font-size="18">Q</text><path d="M174,323 L202,323 L188,304 Z" fill="#ffffff" stroke="#111827" stroke-width="2"/><text x="159" y="319" fill="#111827" font-family="Arial, sans-serif" font-size="18" font-weight="bold">P</text><circle cx="308" cy="268" r="4" fill="#111827"/><text x="317" y="284" fill="#111827" font-family="Arial, sans-serif" font-size="17">M</text><line x1="308" y1="268" x2="279" y2="172" stroke="#475569" stroke-width="1.5" stroke-dasharray="7 5" marker-start="url(#dimArrowOverlay)" marker-end="url(#dimArrowOverlay)"/><path d="M308,268 L294.6,272.1 L290.5,258.7 L303.9,254.6" fill="none" stroke="#111827" stroke-width="1.5"/><circle cx="279" cy="172" r="6" fill="#111827"/><text x="290" y="168" fill="#111827" font-family="Arial, sans-serif" font-size="18" font-weight="bold">G</text><text x="315" y="216" fill="#111827" font-family="Arial, sans-serif" font-size="17">0.90 m</text><line x1="279" y1="132" x2="279" y2="283" stroke="#991b1b" stroke-width="1.3" stroke-dasharray="6 5"/><line x1="279" y1="187" x2="279" y2="257" stroke="#991b1b" stroke-width="3" marker-end="url(#forceArrowOverlay)"/><text x="289" y="232" fill="#991b1b" font-family="Arial, sans-serif" font-size="18" font-weight="bold">W</text><line x1="188" y1="304" x2="203" y2="353" stroke="#475569" stroke-width="1.3"/><line x1="428" y1="231" x2="443" y2="280" stroke="#475569" stroke-width="1.3"/><line x1="203" y1="353" x2="443" y2="280" stroke="#1f2937" stroke-width="1.5" marker-start="url(#dimArrowOverlay)" marker-end="url(#dimArrowOverlay)"/><text x="303" y="332" fill="#111827" font-family="Arial, sans-serif" font-size="17" font-weight="bold" transform="rotate(-16.9 303 332)">1.20 m</text><line x1="70" y1="340" x2="164" y2="340" stroke="#475569" stroke-width="1.3" stroke-dasharray="6 5"/><line x1="70" y1="340" x2="188" y2="304" stroke="#475569" stroke-width="1.3" stroke-dasharray="6 5"/><path d="M114,340 A44,44 0 0 0 112,327.2" fill="none" stroke="#111827" stroke-width="1.8"/><text x="120" y="326" fill="#111827" font-family="Arial, sans-serif" font-size="19" font-style="italic">θ</text></svg>