<svg xmlns="http://www.w3.org/2000/svg" viewBox="0 0 640 420" width="640" height="420"><rect x="0" y="0" width="640" height="420" fill="white"/><g stroke="#d5d9de" stroke-width="1"><line x1="184" y1="60" x2="184" y2="340"/><line x1="268" y1="60" x2="268" y2="340"/><line x1="352" y1="60" x2="352" y2="340"/><line x1="436" y1="60" x2="436" y2="340"/><line x1="520" y1="60" x2="520" y2="340"/><line x1="100" y1="284" x2="550" y2="284"/><line x1="100" y1="228" x2="550" y2="228"/><line x1="100" y1="172" x2="550" y2="172"/><line x1="100" y1="116" x2="550" y2="116"/><line x1="100" y1="60" x2="550" y2="60"/></g><g stroke="#15191d" stroke-width="2.5" fill="none"><line x1="100" y1="340" x2="570" y2="340"/><path d="M570 340 L558 334 L558 346 Z" fill="#15191d"/><line x1="100" y1="340" x2="100" y2="45"/><path d="M100 45 L94 57 L106 57 Z" fill="#15191d"/><g stroke-width="2"><line x1="184" y1="334" x2="184" y2="346"/><line x1="268" y1="334" x2="268" y2="346"/><line x1="352" y1="334" x2="352" y2="346"/><line x1="436" y1="334" x2="436" y2="346"/><line x1="520" y1="334" x2="520" y2="346"/><line x1="94" y1="284" x2="106" y2="284"/><line x1="94" y1="228" x2="106" y2="228"/><line x1="94" y1="172" x2="106" y2="172"/><line x1="94" y1="116" x2="106" y2="116"/><line x1="94" y1="60" x2="106" y2="60"/></g></g><g fill="#15191d" font-family="Arial, sans-serif" font-size="17"><text x="91" y="365">0</text><text x="179" y="365">1</text><text x="263" y="365">2</text><text x="347" y="365">3</text><text x="425" y="365">4.0</text><text x="515" y="365">5</text><text x="72" y="290">3</text><text x="72" y="234">6</text><text x="72" y="178">9</text><text x="51" y="122">12.0</text><text x="62" y="66">15</text><text x="505" y="393">time / s</text><text x="17" y="27">velocity /</text><text x="17" y="49">m/s</text></g><line x1="100" y1="340" x2="436" y2="116" stroke="#174f7a" stroke-width="4"/><circle cx="436" cy="116" r="5" fill="#174f7a"/></svg>